<?xml version="1.0" encoding="UTF-8"?>
<svg width="77px" height="44px" viewBox="0 0 77 44" version="1.1" xmlns="http://www.w3.org/2000/svg" xmlns:xlink="http://www.w3.org/1999/xlink">
    <!-- Generator: Sketch 52.4 (67378) - http://www.bohemiancoding.com/sketch -->
    <title>Group 10</title>
    <desc>Created with Sketch.</desc>
    <g id="Home" stroke="none" stroke-width="1" fill="none" fill-rule="evenodd">
        <g id="Desktop" transform="translate(-472.000000, -491.000000)">
            <g id="Group-11" transform="translate(73.000000, 378.000000)">
                <g id="Group-10" transform="translate(399.000000, 113.000000)">
                    <g id="Group-5">
                        <rect id="Rectangle" fill="#BDC3C7" x="26.6933333" y="23" width="10.2666667" height="20" rx="5"></rect>
                        <ellipse id="Oval" fill="#BDC3C7" cx="31.8266667" cy="18" rx="5.13333333" ry="5"></ellipse>
                        <rect id="Rectangle" fill="#1ABC9C" x="40.04" y="19" width="10.2666667" height="20" rx="5"></rect>
                        <rect id="Rectangle" fill="#BDC3C7" x="-7.10542736e-15" y="23" width="10.2666667" height="20" rx="5"></rect>
                        <rect id="Rectangle" fill="#BDC3C7" x="13.3466667" y="23" width="10.2666667" height="20" rx="5"></rect>
                        <ellipse id="Oval" fill="#BDC3C7" cx="18.48" cy="18" rx="5.13333333" ry="5"></ellipse>
                        <ellipse id="Oval" fill="#BDC3C7" cx="58.52" cy="18" rx="5.13333333" ry="5"></ellipse>
                        <rect id="Rectangle" fill="#BDC3C7" x="53.3866667" y="23" width="10.2666667" height="20" rx="5"></rect>
                        <ellipse id="Oval" fill="#BDC3C7" cx="71.8666667" cy="18" rx="5.13333333" ry="5"></ellipse>
                        <rect id="Rectangle" fill="#BDC3C7" x="66.7333333" y="23" width="10.2666667" height="20" rx="5"></rect>
                        <path d="M40.04,9 L36.96,5.5" id="Line" stroke="#F1C40F" stroke-linecap="square"></path>
                        <path d="M50.3066667,9 L53.3866667,5.5" id="Line" stroke="#F1C40F" stroke-linecap="square"></path>
                        <path d="M48.2533333,7.25 L50.3066667,1.5" id="Line" stroke="#F1C40F" stroke-linecap="square"></path>
                        <path d="M42.0933333,7.25 L40.04,1.5" id="Line" stroke="#F1C40F" stroke-linecap="square"></path>
                        <path d="M45.1733333,6.25 L45.1733333,0.5" id="Line" stroke="#F1C40F" stroke-linecap="square"></path>
                        <ellipse id="Oval" stroke="#979797" stroke-width="0.5" fill="#E74C3C" cx="45.1733333" cy="42" rx="4.10666667" ry="1"></ellipse>
                        <ellipse id="Oval" fill="#BDC3C7" cx="5.13333333" cy="18" rx="5.13333333" ry="5"></ellipse>
                    </g>
                    <ellipse id="Oval" fill="#1ABC9C" cx="45.1733333" cy="14" rx="5.13333333" ry="5"></ellipse>
                </g>
            </g>
        </g>
    </g>
</svg>