<?xml version="1.0" encoding="UTF-8"?>
<svg width="41px" height="36px" viewBox="0 0 41 36" version="1.1" xmlns="http://www.w3.org/2000/svg" xmlns:xlink="http://www.w3.org/1999/xlink">
    <!-- Generator: Sketch 52.4 (67378) - http://www.bohemiancoding.com/sketch -->
    <title>Group 9</title>
    <desc>Created with Sketch.</desc>
    <g id="Home" stroke="none" stroke-width="1" fill="none" fill-rule="evenodd">
        <g id="Desktop" transform="translate(-819.000000, -498.000000)">
            <g id="Group-11" transform="translate(73.000000, 378.000000)">
                <g id="Group-9" transform="translate(739.000000, 110.000000)">
                    <g id="Group-7" transform="translate(27.762682, 27.790027) rotate(-37.000000) translate(-27.762682, -27.790027) translate(6.762682, 9.790027)">
                        <path d="M41.526851,22.9641606 C41.7296782,23.2448132 41.7590219,23.6160977 41.6015679,23.9254088 C41.4450183,24.2347658 41.1301403,24.429347 40.7850197,24.429347 L36.7102839,24.429347 C35.6651376,26.9858026 34.022257,29.2714582 31.8643636,31.1051836 C28.7111353,33.784485 24.8036223,35.2173913 20.7279971,35.2173913 C20.2298849,35.2173913 19.7299937,35.1967675 19.2283235,35.1537265 C14.746203,34.7681511 10.6447825,32.6797664 7.67923569,29.2723549 C6.90093534,28.3783575 6.98988376,27.0171863 7.87670161,26.232585 C8.76351945,25.4479837 10.1146487,25.5376524 10.8920596,26.4307529 C13.1255594,28.9970718 16.2147447,30.5707579 19.5921234,30.8603879 C23.0646774,31.1580881 26.4438352,30.07489 29.1087356,27.8107546 C30.2535042,26.8387458 31.193691,25.6900894 31.932854,24.4293471 L28.5412435,24.4293471 C28.1970124,24.4293471 27.8812448,24.2356627 27.7246952,23.9254089 C27.5681457,23.6169485 27.5974987,23.2448233 27.8003016,22.9632635 L33.9235238,14.4680486 C34.0951946,14.2286331 34.3700458,14.0869565 34.6635762,14.0869565 C34.9571066,14.0869565 35.2328473,14.2286331 35.4054077,14.4680486 L41.526851,22.9641606 Z M7.77003764,20.7502885 C7.59769027,20.9897503 7.3231599,21.1313699 7.03001008,21.1304301 C6.73773063,21.1304301 6.46233052,20.9887738 6.28998336,20.7493925 L0.17521283,12.2535984 C-0.0273395089,11.9729754 -0.056656287,11.6009034 0.0996998982,11.292487 C0.256056084,10.9831741 0.571433609,10.7886208 0.915239536,10.7886208 L4.96806277,10.7886208 C7.79846583,3.82235601 14.7874093,-0.594094218 22.4293181,0.0648767491 C26.9423262,0.453983422 31.0635556,2.56986286 34.0307695,6.0225121 C34.8036666,6.92086442 34.7077207,8.28184117 33.8175565,9.06184761 C32.9273924,9.8400609 31.5788203,9.74412908 30.8068116,8.84577687 C28.5707403,6.24575533 25.467603,4.65167313 22.0668559,4.35939485 C16.9390843,3.92277057 12.2057558,6.51203333 9.72448975,10.7895168 L13.1456698,10.7895168 C13.4894757,10.7895168 13.8039649,10.9831736 13.960321,11.293383 C14.1166772,11.6009028 14.0873604,11.9738714 13.8856965,12.2544944 L7.77003764,20.7502885 Z" id="Shape" fill="#E74C3C"></path>
                        <path d="M41.526851,22.9641606 L35.4054077,14.4680486 C35.2328473,14.2286331 34.9571066,14.0869565 34.6635762,14.0869565 C34.3700458,14.0869565 34.0951946,14.2286331 33.9235238,14.4680486 L27.8003016,22.9632635 C27.5974987,23.2448233 27.5681457,23.6169485 27.7246952,23.9254089 C27.8812448,24.2356627 28.1970124,24.4293471 28.5412435,24.4293471 L31.932854,24.4293471 C31.193691,25.6900894 30.2535042,26.8387458 29.1087356,27.8107546 C26.4438352,30.07489 23.0646774,31.1580881 19.5921234,30.8603879 C16.2147447,30.5707579 13.1255594,28.9970718 10.8920596,26.4307529 C10.1146487,25.5376524 8.76351945,25.4479837 7.87670161,26.232585 C6.98988376,27.0171863 6.90093534,28.3783575 7.67923569,29.2723549 C10.6447825,32.6797664 14.746203,34.7681511 19.2283235,35.1537265 C19.7299937,35.1967675 20.2298849,35.2173913 20.7279971,35.2173913 C24.8036223,35.2173913 28.7111353,33.784485 31.8643636,31.1051836 C34.022257,29.2714582 35.6651376,26.9858026 36.7102839,24.429347 L40.7850197,24.429347 C41.1301403,24.429347 41.4450183,24.2347658 41.6015679,23.9254088 C41.7590219,23.6160977 41.7296782,23.2448132 41.526851,22.9641606 L41.526851,22.9641606 Z" id="Shape" fill="#1ABC9C"></path>
                    </g>
                    <polygon id="star1.0" stroke="#F1C40F" fill="#F1C40F" stroke-linejoin="round" points="27.5 30.0384211 30.899 32 29.99975 28.3005263 33 25.8126316 29.04495 25.4878947 27.5 22 25.95505 25.4878947 22 25.8126316 25.00025 28.3005263 24.101 32"></polygon>
                </g>
            </g>
        </g>
    </g>
</svg>