<?xml version="1.0" encoding="UTF-8"?>
<svg width="34px" height="13px" viewBox="0 0 34 13" version="1.1" xmlns="http://www.w3.org/2000/svg" xmlns:xlink="http://www.w3.org/1999/xlink">
    <!-- Generator: Sketch 52.4 (67378) - http://www.bohemiancoding.com/sketch -->
    <title>Group 3</title>
    <desc>Created with Sketch.</desc>
    <g id="Business-Show" stroke="none" stroke-width="1" fill="none" fill-rule="evenodd">
        <g id="Desktop" transform="translate(-739.000000, -741.000000)" fill="#BDC3C7">
            <g id="Group-3" transform="translate(756.000000, 747.500000) scale(-1, 1) translate(-756.000000, -747.500000) translate(739.000000, 741.000000)">
                <rect id="Rectangle" x="12" y="4" width="4" height="9" rx="2"></rect>
                <circle id="Oval" cx="14" cy="2" r="2"></circle>
                <circle id="Oval" cx="20" cy="2" r="2"></circle>
                <rect id="Rectangle" x="0" y="4" width="4" height="9" rx="2"></rect>
                <rect id="Rectangle" x="6" y="4" width="4" height="9" rx="2"></rect>
                <circle id="Oval" cx="8" cy="2" r="2"></circle>
                <circle id="Oval" cx="26" cy="2" r="2"></circle>
                <rect id="Rectangle" x="24" y="4" width="4" height="9" rx="2"></rect>
                <circle id="Oval" cx="20" cy="2" r="2"></circle>
                <rect id="Rectangle" x="18" y="4" width="4" height="9" rx="2"></rect>
                <circle id="Oval" cx="32" cy="2" r="2"></circle>
                <rect id="Rectangle" x="30" y="4" width="4" height="9" rx="2"></rect>
                <circle id="Oval" cx="2" cy="2" r="2"></circle>
            </g>
        </g>
    </g>
</svg>